<?xml version="1.0" standalone="no"?>
<!DOCTYPE svg PUBLIC "-//W3C//DTD SVG 20010904//EN"
 "http://www.w3.org/TR/2001/REC-SVG-20010904/DTD/svg10.dtd">
<svg version="1.0" xmlns="http://www.w3.org/2000/svg"
 width="300.000000pt" height="300.000000pt" viewBox="0 0 300.000000 300.000000"
 preserveAspectRatio="xMidYMid meet">
<metadata>
Created by potrace 1.11, written by Peter Selinger 2001-2013
</metadata>
<g transform="translate(0.000000,300.000000) scale(0.100000,-0.100000)"
fill="#000000" stroke="none">
<path d="M610 2986 c0 -7 -9 -26 -21 -42 l-21 -29 26 28 c23 25 35 57 21 57
-3 0 -5 -6 -5 -14z"/>
<path d="M2572 2980 c0 -14 2 -19 5 -12 2 6 2 18 0 25 -3 6 -5 1 -5 -13z"/>
<path d="M1978 2953 c6 -2 18 -2 25 0 6 3 1 5 -13 5 -14 0 -19 -2 -12 -5z"/>
<path d="M184 2928 l-19 -23 25 20 c14 11 27 21 29 22 2 2 0 3 -6 3 -5 0 -18
-10 -29 -22z"/>
<path d="M2549 2933 c-13 -16 -12 -17 4 -4 9 7 17 15 17 17 0 8 -8 3 -21 -13z"/>
<path d="M462 2914 c10 -10 20 -16 22 -13 3 3 -5 11 -17 18 -21 13 -21 12 -5
-5z"/>
<path d="M540 2910 c-9 -6 -10 -10 -3 -10 6 0 15 5 18 10 8 12 4 12 -15 0z"/>
<path d="M139 2863 c-13 -16 -12 -17 4 -4 9 7 17 15 17 17 0 8 -8 3 -21 -13z"/>
<path d="M2370 2812 c0 -4 10 -13 23 -21 22 -14 22 -14 3 8 -20 22 -26 25 -26
13z"/>
<path d="M1076 2710 c-20 -23 -36 -50 -35 -63 1 -19 2 -17 9 7 5 16 24 44 42
63 17 18 29 33 26 33 -3 0 -22 -18 -42 -40z"/>
<path d="M19 2703 l-24 -28 28 24 c15 14 27 26 27 28 0 8 -8 1 -31 -24z"/>
<path d="M475 2720 c-3 -6 1 -7 9 -4 18 7 21 14 7 14 -6 0 -13 -4 -16 -10z"/>
<path d="M2713 2723 c-12 -2 -27 -12 -34 -21 -11 -14 -11 -15 1 -4 8 6 22 12
31 12 10 0 21 5 24 10 3 6 5 9 3 9 -2 -1 -13 -4 -25 -6z"/>
<path d="M2773 2704 c16 -9 35 -30 42 -47 8 -18 14 -24 15 -15 0 23 -48 78
-68 78 -11 -1 -7 -6 11 -16z"/>
<path d="M2495 2680 c10 -11 20 -20 23 -20 3 0 -3 9 -13 20 -10 11 -20 20 -23
20 -3 0 3 -9 13 -20z"/>
<path d="M2082 2647 c-24 -25 -28 -53 -12 -77 7 -11 8 -5 4 18 -5 26 -2 38 16
57 13 14 21 25 18 25 -2 0 -14 -10 -26 -23z"/>
<path d="M2558 2628 c5 -5 16 -8 23 -6 8 3 3 7 -10 11 -17 4 -21 3 -13 -5z"/>
<path d="M2608 2623 c6 -2 18 -2 25 0 6 3 1 5 -13 5 -14 0 -19 -2 -12 -5z"/>
<path d="M524 2565 c-3 -8 -4 -20 -1 -27 3 -8 6 -6 6 5 1 10 11 22 24 27 l22
9 -23 0 c-12 1 -25 -6 -28 -14z"/>
<path d="M1170 2571 c0 -6 4 -13 10 -16 6 -3 7 1 4 9 -7 18 -14 21 -14 7z"/>
<path d="M1668 2553 c7 -3 16 -2 19 1 4 3 -2 6 -13 5 -11 0 -14 -3 -6 -6z"/>
<path d="M1606 2534 c-9 -8 -16 -25 -15 -37 1 -20 2 -20 8 3 4 14 18 30 31 37
17 9 20 13 8 13 -9 0 -24 -7 -32 -16z"/>
<path d="M869 2513 l-24 -28 26 23 c30 26 65 28 93 5 21 -18 21 -18 2 5 -26
31 -67 29 -97 -5z"/>
<path d="M2183 2512 c9 -10 17 -25 17 -32 0 -7 3 -11 6 -7 10 10 -6 45 -23 52
-15 5 -15 4 0 -13z"/>
<path d="M1196 2505 c-9 -26 -7 -32 5 -12 6 10 9 21 6 23 -2 3 -7 -2 -11 -11z"/>
<path d="M2691 2466 c-1 -21 9 -39 37 -65 38 -36 189 -127 197 -119 2 2 -31
23 -73 46 -105 58 -142 91 -152 132 -8 34 -8 34 -9 6z"/>
<path d="M1913 2454 l-28 -25 32 22 c20 14 41 20 57 17 14 -3 23 -1 20 3 -10
18 -54 8 -81 -17z"/>
<path d="M1172 2454 c-5 -8 -22 -24 -38 -35 -16 -10 -25 -19 -21 -19 14 0 58
33 68 51 12 23 4 26 -9 3z"/>
<path d="M1014 2406 c11 -9 36 -15 55 -15 l36 2 -40 6 c-22 4 -47 10 -55 15
-8 4 -6 0 4 -8z"/>
<path d="M2174 2378 l-19 -23 23 19 c21 18 27 26 19 26 -2 0 -12 -10 -23 -22z"/>
<path d="M2078 2353 c7 -3 16 -2 19 1 4 3 -2 6 -13 5 -11 0 -14 -3 -6 -6z"/>
<path d="M689 2323 c-13 -16 -12 -17 3 -5 10 8 27 11 40 7 18 -5 20 -4 8 4
-22 15 -36 13 -51 -6z"/>
<path d="M1807 2282 c-40 -57 -108 -119 -147 -135 -56 -23 -96 -6 -123 51 -39
81 -100 91 -164 27 -26 -26 -33 -41 -33 -72 0 -51 23 -73 78 -73 72 0 104 -59
62 -113 -11 -14 -66 -55 -122 -92 -57 -37 -128 -91 -158 -120 -30 -29 -91 -78
-135 -110 -89 -65 -104 -81 -105 -110 0 -23 26 -65 41 -65 5 0 0 9 -11 20 -41
41 -23 73 78 147 42 31 100 78 128 105 l51 50 42 -76 c66 -121 119 -138 176
-56 26 37 38 46 66 48 108 9 135 -145 28 -163 -58 -10 -85 -46 -61 -81 4 -6
59 -44 122 -86 63 -41 134 -95 157 -120 49 -54 42 -58 126 72 59 91 89 124
125 135 31 9 68 -17 86 -59 19 -45 57 -70 96 -62 66 13 110 67 110 135 0 41
-28 71 -85 90 -45 14 -50 19 -53 48 -4 40 28 74 86 91 21 6 55 25 77 41 l39
29 61 -77 c79 -96 141 -161 157 -161 7 0 2 7 -11 17 -30 20 -82 78 -139 152
-24 31 -51 63 -60 71 -9 8 -41 51 -71 95 -30 44 -64 88 -75 97 -25 20 -81 24
-95 6 -6 -7 -22 -28 -37 -45 -18 -23 -34 -33 -54 -33 -37 0 -86 41 -100 86
-16 46 5 79 58 94 52 14 76 41 74 87 -1 20 -5 40 -9 44 -5 4 -48 24 -97 44
-49 20 -99 43 -110 51 -31 21 -41 18 -69 -24z"/>
<path d="M649 2293 c-13 -16 -12 -17 4 -4 9 7 17 15 17 17 0 8 -8 3 -21 -13z"/>
<path d="M521 2185 c-87 -84 -114 -98 -140 -72 -11 10 -13 9 -9 -3 3 -9 17
-15 35 -15 24 0 48 17 122 88 51 48 89 87 86 87 -3 0 -45 -38 -94 -85z"/>
<path d="M2501 2234 c-12 -15 -21 -37 -21 -49 0 -29 37 -65 81 -79 39 -13 63
-51 48 -78 -5 -10 -7 -18 -5 -18 3 0 10 9 16 19 19 37 -25 91 -74 91 -19 0
-56 44 -56 67 0 11 9 32 21 47 11 14 18 26 15 26 -2 0 -14 -12 -25 -26z"/>
<path d="M235 2226 c-60 -26 -85 -78 -61 -123 8 -15 15 -24 16 -20 0 5 -5 17
-11 29 -32 60 69 137 135 102 16 -8 31 -12 33 -10 6 6 -52 36 -69 36 -7 -1
-26 -7 -43 -14z"/>
<path d="M1000 2216 c0 -2 8 -10 18 -17 15 -13 16 -12 3 4 -13 16 -21 21 -21
13z"/>
<path d="M1032 2160 c0 -14 2 -19 5 -12 2 6 2 18 0 25 -3 6 -5 1 -5 -13z"/>
<path d="M2781 2140 c-13 -11 -19 -20 -14 -20 6 0 18 9 28 20 23 25 17 25 -14
0z"/>
<path d="M2720 2130 c8 -5 20 -10 25 -10 6 0 3 5 -5 10 -8 5 -19 10 -25 10 -5
0 -3 -5 5 -10z"/>
<path d="M904 2064 c-18 -14 -18 -15 4 -4 12 6 22 13 22 15 0 8 -5 6 -26 -11z"/>
<path d="M287 1998 c-5 -17 -40 -55 -95 -102 l-89 -75 -39 37 -39 37 32 -35
31 -35 -44 -50 c-24 -27 -44 -53 -44 -58 0 -5 21 16 47 47 l47 56 31 -28 c29
-26 29 -26 7 -1 l-22 26 80 67 c84 70 115 107 108 128 -3 7 -8 1 -11 -14z"/>
<path d="M1058 1969 c-10 -5 -18 -15 -18 -20 0 -6 7 -3 16 5 18 19 46 20 77 5
21 -10 21 -10 3 5 -23 18 -53 20 -78 5z"/>
<path d="M1170 1936 c0 -2 8 -10 18 -17 15 -13 16 -12 3 4 -13 16 -21 21 -21
13z"/>
<path d="M2474 1918 l-19 -23 23 19 c21 18 27 26 19 26 -2 0 -12 -10 -23 -22z"/>
<path d="M880 1913 c0 -6 8 -17 18 -24 16 -13 16 -13 2 6 -8 11 -16 22 -17 24
-2 2 -3 0 -3 -6z"/>
<path d="M990 1870 c-8 -5 -24 -7 -35 -4 -18 4 -18 4 -3 -6 16 -10 58 1 58 15
0 7 -3 6 -20 -5z"/>
<path d="M395 1805 c-14 -13 -25 -30 -25 -37 1 -7 7 -1 16 14 14 26 26 32 84
41 17 3 12 5 -13 6 -28 1 -44 -5 -62 -24z"/>
<path d="M540 1785 c13 -14 26 -25 28 -25 3 0 -5 11 -18 25 -13 14 -26 25 -28
25 -3 0 5 -11 18 -25z"/>
<path d="M2725 1659 c-11 -17 -2 -18 19 -3 17 12 17 14 4 14 -9 0 -20 -5 -23
-11z"/>
<path d="M2822 1653 c15 -10 38 -36 50 -59 19 -37 20 -46 10 -69 -7 -15 -11
-29 -9 -32 10 -9 29 59 23 83 -8 31 -67 94 -87 94 -8 0 -2 -8 13 -17z"/>
<path d="M436 1594 c-9 -8 -16 -23 -15 -32 0 -14 2 -14 6 -2 3 8 12 23 21 33
19 21 9 23 -12 1z"/>
<path d="M2680 1556 c-6 -8 -24 -17 -38 -19 l-27 -4 26 -2 c15 0 34 8 44 19
10 11 16 20 13 20 -3 0 -11 -6 -18 -14z"/>
<path d="M1064 1449 c30 -24 35 -71 11 -106 -22 -31 -85 -49 -116 -34 -23 12
-23 11 -5 -3 24 -20 37 -20 80 -2 42 17 66 51 66 91 0 31 -30 75 -52 75 -6 0
1 -9 16 -21z"/>
<path d="M2779 1443 c-13 -16 -12 -17 4 -4 16 13 21 21 13 21 -2 0 -10 -8 -17
-17z"/>
<path d="M817 1412 c-24 -26 -21 -36 3 -12 25 25 47 25 74 3 21 -18 21 -18 2
5 -23 27 -57 29 -79 4z"/>
<path d="M2760 1412 c0 -20 28 -69 49 -84 10 -7 47 -39 81 -71 73 -68 76 -60
-62 -132 -142 -74 -193 -144 -141 -195 14 -13 14 -13 4 7 -31 60 2 99 159 187
109 60 116 63 135 47 17 -13 18 -14 8 0 -10 12 -10 18 0 29 10 10 8 12 -6 6
-14 -4 -42 15 -109 76 -50 46 -97 97 -104 113 -7 17 -13 24 -14 17z"/>
<path d="M585 1380 c10 -11 20 -20 23 -20 3 0 -3 9 -13 20 -10 11 -20 20 -23
20 -3 0 3 -9 13 -20z"/>
<path d="M640 1335 c13 -14 26 -25 28 -25 3 0 -5 11 -18 25 -13 14 -26 25 -28
25 -3 0 5 -11 18 -25z"/>
<path d="M710 1265 c0 -6 21 -31 46 -55 62 -61 86 -97 95 -139 6 -35 7 -35 8
-6 0 17 -7 44 -18 60 -25 41 -130 153 -131 140z"/>
<path d="M655 1234 c-22 -13 -37 -24 -33 -24 14 0 78 34 78 42 0 10 3 11 -45
-18z"/>
<path d="M437 1160 c-61 -23 -77 -37 -94 -78 -17 -40 -10 -68 20 -83 21 -12
21 -11 5 8 -44 49 -1 120 92 152 30 11 48 20 40 20 -8 0 -37 -8 -63 -19z"/>
<path d="M2092 1150 c-12 -12 -22 -24 -22 -27 0 -4 10 3 23 14 12 11 29 23 37
26 13 5 13 6 -1 6 -8 1 -25 -8 -37 -19z"/>
<path d="M2180 1159 c13 -6 32 -15 40 -22 9 -7 5 -2 -8 11 -13 12 -31 22 -40
21 -11 0 -9 -4 8 -10z"/>
<path d="M1371 1143 c-18 -9 -42 -31 -52 -47 -19 -31 -26 -91 -11 -100 4 -2 6
12 4 32 -4 45 25 88 76 109 31 13 38 12 73 -5 21 -11 39 -15 39 -10 0 10 -61
38 -82 38 -7 0 -28 -8 -47 -17z"/>
<path d="M1699 1133 c-13 -16 -12 -17 4 -4 16 13 21 21 13 21 -2 0 -10 -8 -17
-17z"/>
<path d="M17 1095 c35 -50 36 -79 7 -114 -14 -17 -20 -29 -12 -26 8 3 22 19
31 34 22 37 13 82 -21 113 l-25 23 20 -30z"/>
<path d="M1625 1079 c-40 -32 -57 -39 -84 -36 -29 3 -31 2 -15 -10 10 -7 21
-13 25 -13 9 0 129 88 129 95 0 8 -2 7 -55 -36z"/>
<path d="M1900 1086 c0 -2 8 -10 18 -17 15 -13 16 -12 3 4 -13 16 -21 21 -21
13z"/>
<path d="M2051 1078 c-1 -9 -11 -24 -23 -32 -18 -13 -19 -16 -6 -16 19 0 42
35 34 53 -2 7 -5 5 -5 -5z"/>
<path d="M458 980 c19 -18 22 -29 17 -58 -13 -83 -108 -129 -169 -81 -14 11
-26 16 -26 11 0 -17 48 -42 81 -42 61 0 129 63 129 120 0 29 -16 56 -37 64
-13 6 -12 2 5 -14z"/>
<path d="M2144 952 c-16 -10 -37 -53 -30 -60 3 -3 6 0 6 7 0 6 11 23 25 36 23
24 23 33 -1 17z"/>
<path d="M1390 946 c0 -2 7 -9 15 -16 9 -7 15 -8 15 -2 0 5 -7 12 -15 16 -8 3
-15 4 -15 2z"/>
<path d="M195 929 c-21 -10 -61 -65 -109 -152 l-27 -48 -32 22 -32 22 32 -34
32 -34 -20 -25 c-36 -46 -40 -65 -5 -25 34 39 36 40 51 20 8 -11 30 -51 49
-90 39 -80 94 -148 138 -171 27 -14 32 -14 54 1 13 8 24 19 24 22 0 4 -5 2
-12 -5 -7 -7 -25 -12 -40 -12 -39 0 -113 77 -145 150 -14 30 -38 76 -55 102
l-30 47 36 69 c61 114 116 158 154 120 9 -9 12 -9 12 0 0 11 -31 33 -47 31 -4
0 -17 -5 -28 -10z"/>
<path d="M751 919 c-2 -58 85 -137 132 -120 11 4 28 19 36 32 l15 24 -23 -22
c-49 -51 -130 -7 -152 82 -7 29 -7 29 -8 4z"/>
<path d="M960 920 c-11 -11 -20 -24 -20 -30 0 -5 11 2 25 16 19 19 31 23 48
18 33 -10 66 -44 92 -95 13 -25 40 -64 59 -88 42 -49 41 -49 19 -81 l-16 -25
25 23 26 23 38 -19 c22 -11 50 -22 64 -26 14 -4 -3 7 -37 24 -35 17 -63 35
-63 40 0 4 42 42 93 84 52 42 99 88 105 103 l12 28 -18 -25 c-18 -27 -28 -36
-135 -125 l-68 -57 -30 33 c-16 19 -41 54 -56 79 -69 115 -118 145 -163 100z"/>
<path d="M2772 889 c10 -5 22 -28 28 -50 9 -34 8 -45 -6 -67 -37 -60 -95 -79
-142 -47 -19 14 -21 14 -16 1 3 -8 19 -19 36 -25 66 -23 156 58 143 129 -7 37
-30 70 -49 70 -6 0 -3 -5 6 -11z"/>
<path d="M2527 839 c-9 -6 -33 -40 -51 -77 -19 -37 -42 -75 -53 -84 -18 -17
-21 -16 -54 6 -57 38 -95 60 -84 49 6 -6 34 -26 62 -45 l52 -34 -37 -36 c-20
-19 -59 -50 -87 -69 -27 -18 -78 -59 -112 -91 -62 -58 -88 -69 -111 -46 -8 8
-12 8 -12 1 0 -13 23 -23 51 -23 11 0 48 27 82 61 34 34 87 79 117 100 30 21
69 50 87 65 36 29 46 26 116 -30 74 -59 98 -130 55 -160 -18 -13 -19 -16 -6
-16 37 0 50 72 21 116 -17 26 -113 109 -135 117 -10 3 -7 12 8 33 12 16 31 50
44 74 31 62 49 80 78 80 14 0 34 -8 45 -17 19 -17 20 -17 9 3 -17 33 -52 42
-85 23z"/>
<path d="M2174 812 c8 -13 66 -56 66 -49 0 3 -17 17 -37 33 -20 15 -33 23 -29
16z"/>
<path d="M1411 591 c31 -31 36 -58 18 -94 -10 -21 -10 -21 5 -3 24 29 20 73
-9 101 -13 14 -28 25 -34 25 -5 0 4 -13 20 -29z"/>
<path d="M413 535 c-18 -8 -33 -19 -33 -26 0 -8 6 -7 18 3 43 38 113 23 145
-31 23 -39 21 -82 -4 -117 l-21 -29 26 28 c76 82 -28 219 -131 172z"/>
<path d="M794 521 c-44 -27 -64 -59 -64 -101 1 -48 19 -68 79 -85 46 -14 71
-36 71 -64 0 -5 -12 -24 -26 -43 l-26 -33 31 33 c17 18 31 40 31 50 0 27 -40
59 -83 67 -101 19 -83 148 25 182 21 7 26 11 13 12 -11 0 -34 -8 -51 -18z"/>
<path d="M880 523 c8 -3 26 -15 40 -27 l25 -21 -24 28 c-14 15 -32 27 -40 26
-14 0 -14 -1 -1 -6z"/>
<path d="M1895 516 c-43 -19 -95 -81 -95 -114 0 -27 16 -52 33 -52 5 0 1 7 -7
16 -36 36 -6 98 65 134 47 24 86 25 111 3 10 -9 18 -11 18 -5 0 30 -73 41
-125 18z"/>
<path d="M1085 490 c-9 -16 -13 -30 -11 -30 3 0 12 14 21 30 9 17 13 30 11 30
-3 0 -12 -13 -21 -30z"/>
<path d="M951 438 c-1 -22 35 -47 59 -41 10 3 29 17 42 31 l23 27 -26 -22
c-14 -13 -37 -23 -51 -23 -16 0 -29 8 -36 23 -8 17 -11 18 -11 5z"/>
<path d="M1290 425 c-33 -40 18 -150 85 -182 28 -14 38 -14 65 -3 37 15 34 25
-4 10 -74 -28 -175 97 -137 169 14 24 9 28 -9 6z"/>
<path d="M2435 395 c-61 -61 1 -195 90 -195 31 0 85 37 85 59 0 5 -13 -4 -29
-20 -31 -31 -56 -36 -93 -18 -33 14 -68 70 -68 106 0 36 32 80 63 86 l22 4
-23 2 c-13 0 -34 -10 -47 -24z"/>
<path d="M1510 334 c-12 -13 -10 -14 12 -4 39 18 57 3 163 -136 85 -112 93
-127 80 -140 -8 -9 -20 -25 -26 -37 -6 -13 2 -8 19 12 l29 34 26 -34 c14 -18
28 -31 31 -28 3 2 -9 19 -25 37 -30 32 -30 34 -15 58 9 13 37 46 62 72 90 93
103 122 66 155 -26 24 -36 21 -12 -3 33 -33 24 -57 -47 -133 -38 -39 -73 -77
-79 -83 -13 -15 -33 4 -110 106 -104 138 -141 164 -174 124z"/>
<path d="M456 319 c-51 -40 -30 -88 71 -158 94 -64 98 -67 89 -52 -4 6 -41 34
-81 61 -102 69 -117 101 -69 145 33 30 26 33 -10 4z"/>
<path d="M2644 320 c-12 -4 -24 -15 -27 -24 -5 -12 0 -11 22 5 50 37 80 21
165 -84 77 -95 156 -178 156 -163 0 5 -21 30 -48 55 -26 25 -73 78 -105 118
-80 101 -106 116 -163 93z"/>
<path d="M775 174 c-51 -34 -69 -52 -29 -29 35 20 82 54 74 55 -3 0 -23 -12
-45 -26z"/>
<path d="M685 120 c-3 -6 1 -7 9 -4 18 7 21 14 7 14 -6 0 -13 -4 -16 -10z"/>
<path d="M2985 79 c-4 -6 -5 -12 -2 -15 2 -3 7 2 10 11 7 17 1 20 -8 4z"/>
<path d="M677 37 c15 -19 30 -33 32 -31 5 5 -43 63 -52 63 -5 1 4 -14 20 -32z"/>
<path d="M2970 46 c0 -2 7 -9 15 -16 13 -11 14 -10 9 4 -5 14 -24 23 -24 12z"/>
<path d="M484 14 c-18 -14 -18 -14 6 -3 31 14 36 19 24 19 -6 0 -19 -7 -30
-16z"/>
<path d="M2940 15 c-7 -8 -8 -15 -2 -15 5 0 15 7 22 15 7 8 8 15 2 15 -5 0
-15 -7 -22 -15z"/>
</g>
</svg>
